Genre:Comedy | Horror
Language:English
IMDb:http://www.imdb.com/title/tt1438176/
Source:BluRay.X264.AMIABLE Thanks!

Format : MPEG-4
Format profile : Base Media
Codec ID : isom
File size : 2.54 GiB
Duration : 1h 45mn
Overall bit rate : 3 426 Kbps

Video
ID : 1
Format : AVC
Format/Info : Advanced Video Codec
Format profile : High@L5.1
Format settings, CABAC : Yes
Format settings, ReFrames : 3 frames
Codec ID : avc1
Codec ID/Info : Advanced Video Coding
Duration : 1h 45mn
Bit rate mode : Variable
Bit rate : 3 000 Kbps
Maximum bit rate : 17.2 Mbps
Width : 1 280 pixels
Height : 720 pixels
Display aspect ratio : 16:9
Frame rate mode : Constant
Frame rate : 23.976 fps
Color space : YUV
Chroma subsampling : 4:2:0
Bit depth : 8 bits
Scan type : Progressive
Bits/(Pixel*Frame) : 0.136
Stream size : 2.20 GiB (87%)
Writing library : x264

Audio
ID : 2
Format : AAC
Format/Info : Advanced Audio Codec
Format version : Version 4
Format profile : LC
Format settings, SBR : No
Codec ID : 40
Duration : 1h 45mn
Bit rate mode : Variable
Bit rate : 444 Kbps
Maximum bit rate : 564 Kbps
Channel(s) : 6 channels
Channel positions : Front: L C R, Side: L R, LFE
Sampling rate : 48.0 KHz
Stream size : 336 MiB (13%)
 
http://img710.imageshack.us/img710/4237/vlcsnap00005g.png 
http://img62.imageshack.us/img62/944/vlcsnap00004h.png 
http://img402.imageshack.us/img402/2594/vlcsnap00003wk.png 
http://img406.imageshack.us/img406/5913/vlcsnap00002li.png 
http://img828.imageshack.us/img828/3458/vlcsnap00001jo.png